P2
55 46
255
44 44 44 44 44 44 44 44 166 168
166 168 165 165 156 149 149 147 143 139
136 130 112 112 86 90 93 93 94 95
95 95 109 129 132 145 159 173 173 181
44 44 44 44 44 44 44 44 44 44
44 44 44 44 44 44 44 44 44 44
44 44 148 162 164 165 165 170 161 154
149 147 143 142 136 132 121 122 98 90
84 98 98 101 109 97 104 110 116 141
154 159 161 182 183 188 44 44 44 44
44 44 44 44 44 44 44 44 44 44
44 44 44 44 44 44 148 148 156 162
160 165 164 163 154 151 142 143 138 133
119 121 113 99 90 82 95 95 106 109
116 110 110 123 139 151 159 161 178 183
194 198 44 44 44 44 44 44 44 44
44 44 44 44 44 44 44 44 44 44
144 144 156 159 161 163 159 159 159 158
147 147 141 135 123 120 111 101 101 82
78 76 76 99 114 116 116 120 138 144
143 161 167 167 180 198 198 183 44 44
44 44 44 44 44 44 44 44 44 44
44 44 44 44 156 157 153 159 161 161
157 157 155 157 154 153 141 139 128 123
114 104 101 92 70 57 76 76 66 98
120 117 120 138 144 152 158 162 170 178
184 190 200 204 44 44 44 44 44 44
44 44 44 44 44 44 44 44 148 148
155 160 155 155 157 151 151 153 152 154
145 139 132 132 121 110 110 92 75 42
42 49 49 78 78 106 117 120 120 148
159 159 155 171 178 185 196 202 202 204
44 44 44 44 44 44 44 44 44 44
44 44 129 139 146 149 151 150 150 141
151 146 140 151 146 142 135 133 127 121
114 93 89 53 41 34 37 37 51 73
64 111 114 130 153 159 155 150 155 177
190 200 205 202 192 198 44 44 44 44
44 44 44 44 44 44 103 129 134 145
154 154 149 142 141 136 140 140 131 142
139 135 129 126 121 108 92 76 76 41
38 37 37 47 30 80 80 101 153 153
175 157 150 147 169 187 200 200 189 192
204 203 44 44 44 44 44 44 44 44
92 92 124 144 153 153 151 149 145 138
130 130 131 132 131 135 135 126 126 117
99 95 87 55 45 36 41 41 76 71
45 81 83 116 183 174 174 145 158 169
168 187 184 184 195 197 195 198 44 44
44 44 44 44 44 82 120 134 148 153
152 152 149 148 146 138 130 133 131 131
134 135 132 119 117 102 95 93 67 45
45 43 43 58 71 55 77 83 118 182
178 163 147 166 169 169 170 181 190 186
190 195 196 197 44 44 44 44 44 44
63 107 144 144 149 151 151 149 151 151
143 142 136 136 134 135 135 130 120 113
113 101 95 95 59 48 57 57 57 51
71 71 100 182 182 177 153 151 151 166
160 160 172 174 187 187 195 197 197 187
44 44 44 44 44 93 152 147 147 139
143 146 139 143 141 138 136 137 136 136
135 131 122 118 120 112 113 105 90 85
60 57 57 63 73 71 112 167 182 183
160 141 147 151 151 155 163 173 184 184
193 192 194 189 209 190 44 44 44 44
157 157 142 142 139 137 133 139 132 135
133 133 132 134 136 130 122 115 115 119
119 113 113 106 82 82 71 71 96 96
109 147 167 169 151 131 131 141 145 151
154 172 182 182 182 192 192 193 211 209
217 216 44 44 44 158 144 147 145 138
133 133 127 129 125 128 128 128 130 127
123 115 115 108 102 114 112 107 104 101
94 126 126 116 136 174 146 156 147 137
128 131 117 130 146 170 172 179 178 180
182 193 206 206 207 213 218 218 44 44
154 152 147 148 143 139 133 138 132 125
123 123 128 129 120 112 115 97 102 102
93 96 100 104 123 140 126 126 154 183
174 203 194 153 137 137 127 117 142 162
162 172 179 184 180 187 200 200 205 212
215 218 218 219 44 157 157 151 145 145
138 139 136 136 129 120 120 128 123 107
107 91 87 87 93 98 108 100 122 147
147 155 155 178 178 204 212 184 161 153
134 134 139 155 153 161 179 188 188 189
199 199 209 213 217 217 215 218 218 218
164 158 159 153 141 141 136 136 132 131
127 122 117 100 107 101 94 81 91 100
108 108 122 136 144 155 180 180 179 196
201 192 184 184 139 137 132 123 135 153
167 167 170 183 189 194 202 206 214 217
218 219 217 217 216 175 164 159 159 148
140 140 136 136 131 129 120 100 100 97
97 97 97 107 101 101 122 127 127 140
177 180 180 195 202 199 199 192 158 158
131 118 116 116 161 183 183 189 202 189
211 209 215 215 215 218 219 219 218 216
194 179 168 158 164 153 143 140 136 129
132 117 107 95 92 95 95 91 101 103
115 126 127 144 163 169 192 192 207 219
209 199 192 174 142 144 121 114 150 170
184 202 217 218 216 213 215 214 216 216
218 218 218 219 217 194 199 184 171 164
162 153 140 140 128 125 117 100 92 92
100 87 67 67 102 128 126 140 163 163
179 198 198 221 219 219 214 192 182 159
139 139 136 154 170 186 213 217 217 214
215 215 216 215 216 216 218 218 219 217
217 201 205 183 169 161 161 147 137 133
129 108 95 95 102 80 39 45 50 53
109 151 164 164 179 193 208 208 218 221
225 225 212 172 164 155 125 136 148 151
184 184 215 217 216 214 216 218 218 216
216 217 218 217 216 225 219 205 206 180
166 159 157 147 133 127 122 110 109 107
45 39 39 43 53 71 142 172 176 189
208 208 208 208 219 222 221 199 175 164
142 120 136 127 153 142 173 177 208 216
212 216 217 218 217 216 217 218 216 216
225 225 221 208 208 183 162 153 153 141
119 119 105 112 49 49 33 42 42 53
84 84 136 179 203 203 208 208 213 213
217 209 188 188 164 126 126 100 106 106
157 179 204 204 216 213 213 216 217 217
217 218 218 218 217 225 225 221 208 208
183 162 153 153 141 119 119 105 112 49
49 33 42 42 53 84 84 136 179 203
203 208 208 213 213 217 209 188 188 164
126 126 100 106 106 157 179 204 204 216
213 213 216 217 217 217 218 218 218 217
225 226 227 228 203 192 180 163 159 155
140 108 103 96 65 32 35 34 54 78
80 90 114 180 191 203 205 205 213 218
217 211 202 179 165 144 102 93 79 86
70 162 210 215 217 214 213 213 214 217
217 217 218 217 217 226 226 227 218 208
189 189 177 165 155 148 100 103 103 58
39 35 40 54 78 108 108 142 142 180
191 205 205 211 217 217 217 211 190 165
114 100 93 81 64 74 74 185 217 217
215 210 213 213 215 217 217 217 216 216
217 223 215 211 213 205 174 167 166 158
131 124 106 89 64 37 38 48 48 77
125 128 131 142 158 177 191 191 220 215
217 208 220 216 151 97 97 101 64 68
71 91 142 211 216 218 214 209 213 213
216 217 216 216 215 217 214 210 212 213
212 196 167 167 166 145 124 111 90 64
59 53 70 48 73 134 128 128 155 158
178 181 181 210 215 212 220 220 221 170
131 107 99 66 68 85 113 142 178 215
219 214 211 210 213 215 215 216 216 217
216 215 214 212 208 202 202 195 174 183
169 150 95 95 102 70 70 69 134 123
123 134 141 141 200 204 221 221 213 217
221 221 221 200 200 160 139 79 79 64
98 98 96 210 217 222 217 212 212 212
215 214 214 216 216 44 216 214 219 217
208 205 207 200 183 178 178 139 106 127
138 92 166 226 182 123 180 145 195 215
223 221 221 227 221 223 224 224 200 194
196 208 146 84 127 96 132 141 214 217
219 219 216 212 214 214 214 215 215 216
44 44 215 217 217 216 210 206 206 201
185 185 183 124 127 141 156 226 226 226
233 180 226 207 215 215 216 216 220 220
223 231 224 222 196 204 204 209 191 127
173 168 201 201 217 219 219 218 217 214
214 215 215 215 213 44 44 44 217 220
228 224 215 219 223 210 193 203 188 129
151 163 170 226 201 228 216 210 212 216
218 219 219 216 219 226 231 226 219 216
204 205 217 220 218 214 226 211 208 212
215 217 214 215 214 215 214 215 213 213
44 44 44 44 228 224 224 225 222 223
218 215 203 217 207 153 163 163 185 201
187 198 201 212 220 224 219 219 218 223
226 230 225 229 216 219 217 217 221 222
224 226 223 216 212 211 213 215 215 216
214 214 213 212 213 44 44 44 44 44
221 224 226 224 227 221 221 225 223 232
220 153 173 173 194 205 216 204 219 224
224 216 216 225 225 227 231 230 229 231
224 224 221 223 225 225 220 223 223 220
213 217 215 215 214 215 213 213 213 212
44 44 44 44 44 44 225 226 223 225
223 230 232 234 232 232 224 168 194 190
204 216 223 231 228 220 215 215 219 228
232 236 230 230 231 229 224 225 225 225
226 227 224 229 232 226 217 219 214 214
213 211 213 213 214 44 44 44 44 44
44 44 226 229 229 232 232 230 230 234
232 232 235 215 198 198 191 183 183 183
184 215 215 224 231 236 236 235 235 235
231 229 228 228 226 230 230 231 231 234
234 227 217 217 213 208 208 211 213 44
44 44 44 44 44 44 44 44 231 235
231 230 229 230 238 236 238 235 230 224
209 216 185 149 210 168 217 217 230 239
234 236 238 238 236 236 234 232 229 232
230 233 237 237 236 233 231 227 214 203
206 206 210 44 44 44 44 44 44 44
44 44 44 44 229 230 230 230 236 238
237 236 231 231 234 223 216 214 229 210
230 236 236 244 239 243 239 238 236 238
237 237 234 235 232 236 237 239 239 240
233 231 225 212 203 199 209 44 44 44
44 44 44 44 44 44 44 44 44 44
230 230 238 237 235 236 235 234 234 232
232 223 227 227 231 233 236 236 242 235
241 241 236 236 238 239 236 237 238 238
240 243 239 244 244 239 229 221 221 202
202 44 44 44 44 44 44 44 44 44
44 44 44 44 44 44 238 238 237 233
235 235 234 234 232 231 234 227 231 232
235 236 236 233 230 231 238 239 238 238
238 238 237 240 242 243 243 247 244 244
238 229 225 209 200 44 44 44 44 44
44 44 44 44 44 44 44 44 44 44
44 44 236 232 232 233 234 236 236 233
236 236 232 226 233 233 236 236 231 231
230 233 241 241 236 239 239 239 242 241
242 245 245 245 238 231 231 223 211 44
44 44 44 44 44 44 44 44 44 44
44 44 44 44 44 44 44 44 231 232
232 233 235 234 230 231 234 231 225 229
235 234 234 233 232 231 232 236 239 235
236 240 240 239 241 240 239 241 238 231
231 226 221 44 44 44 44 44 44 44
44 44 44 44 44 44 44 44 44 44
44 44 44 44 231 232 232 233 230 230
231 232 226 226 226 234 234 234 231 235
233 233 233 235 235 234 238 239 239 240
238 238 234 232 231 228 221 44 44 44
44 44 44 44 44 44 44 44 44 44
44 44 44 44 44 44 44 44 44 44
231 233 234 233 230 231 230 227 227 229
232 233 233 235 236 232 234 233 233 233
238 236 236 239 236 237 235 234 233 231
226 44 44 44 44 44 44 44 44 44
44 44 44 44 44 44 44 44 44 44
44 44 44 44 44 44 232 234 232 229
230 230 230 228 229 230 233 233 237 236
235 234 233 234 233 234 236 235 235 236
235 234 234 233 233 44 44 44 44 44
44 44 44 44 44 44 44 44 44 44
44 44 44 44 44 44 44 44 44 44
44 44 232 230 227 227 230 229 229 229
232 235 235 236 237 236 236 235 234 234
233 234 234 234 234 235 235 234 231 44
44 44 44 44 44 44 44 44 44 44
