P2
# CREATOR: GIMP PNM Filter Version 1.1
55 46
255
138
136
134
131
127
121
118
114
115
116
118
120
122
124
127
130
137
141
160
172
174
181
188
204
198
183
205
204
198
211
203
198
198
197
187
190
213
216
218
217
219
218
217
216
216
214
214
214
214
212
211
210
210
210
214
134
134
133
131
128
122
119
113
112
112
113
116
119
120
123
127
139
142
152
163
173
182
183
194
198
190
200
202
192
204
197
195
196
197
189
209
217
213
218
218
218
217
216
216
216
215
214
215
214
213
212
211
211
213
217
135
136
134
131
128
122
117
113
111
109
111
112
114
116
117
118
128
136
150
159
161
167
178
180
184
188
196
205
189
195
191
190
195
194
189
211
207
210
215
215
217
218
218
217
216
215
215
215
214
214
214
213
212
213
214
136
136
134
130
127
121
116
111
108
108
110
110
109
110
110
113
126
132
145
154
159
161
167
170
178
185
190
200
184
190
186
187
193
192
193
206
205
212
217
218
219
219
218
219
217
216
216
214
214
214
215
214
212
213
215
137
136
134
131
125
119
117
114
108
106
105
106
107
106
106
108
120
129
141
146
151
161
162
164
171
177
179
187
181
182
174
184
191
192
193
200
208
213
217
218
218
218
219
218
217
216
216
215
215
215
215
214
214
214
214
137
136
134
129
126
121
119
113
105
102
100
100
99
101
100
100
109
116
128
139
143
153
158
155
155
162
169
168
170
172
169
184
182
182
190
200
209
211
214
215
218
218
218
218
217
216
217
217
217
216
215
215
215
214
213
135
134
131
126
125
120
115
112
104
101
99
98
97
96
96
95
104
110
123
138
144
152
159
155
150
147
158
169
160
163
173
182
178
180
187
199
202
206
215
216
216
216
216
217
218
218
217
217
216
217
216
215
214
213
212
134
132
130
126
123
118
116
114
105
99
96
95
95
94
95
97
104
110
120
132
138
148
159
162
157
145
147
166
155
156
172
179
176
184
189
194
198
209
214
215
215
216
216
216
218
218
217
216
215
216
216
215
214
214
214
133
132
130
125
122
119
118
114
105
99
93
93
93
94
101
109
116
116
117
120
120
130
153
175
174
163
147
151
151
154
170
172
179
188
183
189
211
213
215
216
218
218
217
217
217
217
217
216
216
217
216
214
214
215
215
133
132
130
125
122
116
114
113
105
102
92
89
90
98
102
106
114
120
119
117
114
122
153
183
178
167
153
147
145
146
159
162
179
170
178
202
216
217
215
216
217
216
217
217
217
217
217
217
216
216
216
214
214
214
215
140
136
131
125
123
118
115
113
111
108
97
86
84
89
95
99
97
98
106
114
111
101
116
156
182
177
160
141
130
141
162
161
171
167
189
218
216
214
214
214
216
216
215
214
215
216
216
215
214
215
215
213
213
213
214
138
134
130
128
125
119
116
118
123
121
112
98
90
82
78
76
66
78
73
64
80
81
83
118
182
183
160
131
117
142
155
153
167
183
202
217
217
217
216
212
213
213
213
213
213
213
215
215
214
215
215
213
213
213
213
139
136
134
131
128
125
123
128
133
130
122
109
99
82
67
57
49
51
43
30
45
65
77
100
182
190
151
128
127
139
142
135
161
184
207
213
215
206
208
216
214
212
210
209
209
210
212
213
214
215
215
213
212
212
213
145
141
137
135
133
132
134
139
136
132
121
113
101
92
70
42
34
37
47
76
71
55
71
112
167
169
147
137
134
132
123
116
150
170
186
184
173
177
204
215
217
215
218
214
211
212
212
214
214
215
214
213
213
213
214
154
153
150
146
144
141
144
143
136
132
119
111
101
96
75
41
37
38
41
54
58
51
71
118
147
156
166
153
137
129
118
114
143
154
151
142
157
179
210
215
217
216
218
219
217
216
215
217
214
215
214
213
213
213
213
160
162
161
157
154
148
147
142
135
133
120
112
104
92
81
53
41
36
35
43
57
56
73
109
146
175
194
161
139
131
125
121
136
148
144
153
157
151
162
185
211
214
215
222
220
219
218
217
215
216
215
213
211
211
212
166
167
164
161
158
149
147
143
138
135
123
114
110
93
89
76
55
45
45
48
57
63
96
136
174
203
212
184
158
142
144
139
125
136
127
106
86
70
74
91
142
178
210
217
219
219
217
214
215
215
214
213
208
206
210
168
168
166
161
156
149
149
142
141
139
128
121
114
100
92
87
76
67
59
62
60
71
116
159
183
204
212
192
174
154
159
155
120
120
100
79
71
64
71
91
113
96
165
214
217
215
213
213
215
217
214
213
206
203
209
169
169
168
165
161
154
151
147
141
139
132
127
121
108
99
95
93
95
90
85
82
94
126
154
178
196
201
199
192
182
172
164
142
126
102
93
81
64
68
85
98
132
141
201
208
212
211
213
217
219
217
214
203
199
202
169
168
168
170
169
163
158
153
143
139
133
130
126
117
109
102
101
105
108
106
101
114
140
155
179
193
202
209
214
212
182
175
164
144
108
100
101
73
66
64
96
187
168
211
217
216
220
223
226
227
227
220
212
202
198
168
166
165
165
164
159
157
154
145
142
135
129
126
119
117
113
112
113
113
107
104
123
147
155
180
195
207
219
225
221
199
188
179
165
114
97
107
99
79
84
127
173
214
226
223
223
229
232
234
233
231
225
221
209
200
166
164
162
160
159
155
154
152
146
145
139
135
132
122
120
120
120
119
112
101
100
122
144
152
177
192
204
221
222
220
209
202
191
190
151
131
131
139
146
158
191
218
226
224
220
224
227
231
236
237
233
229
225
217
211
162
162
162
163
159
157
153
151
144
142
135
135
135
130
122
118
119
114
103
96
100
123
136
140
169
186
198
218
219
217
214
211
211
216
199
170
160
178
208
209
220
222
222
225
224
227
231
234
237
240
239
235
229
223
220
148
156
159
161
157
151
146
140
131
132
131
134
135
131
122
115
108
102
93
98
108
122
127
144
163
179
193
208
213
218
217
217
208
220
221
200
194
196
204
205
217
221
223
225
226
230
233
237
239
244
244
238
231
226
221
144
153
159
155
150
141
136
130
130
133
136
136
136
130
123
115
97
87
91
100
101
115
126
140
164
176
189
203
205
211
220
215
212
221
224
224
222
219
216
219
224
224
225
228
229
232
236
240
243
247
245
238
231
228
226
157
159
160
150
147
142
138
138
143
142
137
134
134
127
121
112
91
81
98
107
103
114
128
151
172
171
179
191
191
191
202
210
217
223
225
231
226
224
229
231
229
228
229
232
233
235
238
240
243
245
241
235
232
231
231
156
155
153
151
149
145
145
146
143
140
136
132
130
127
120
107
98
94
97
102
101
102
109
137
142
136
154
180
177
163
181
213
221
221
223
231
228
225
229
231
231
231
232
234
234
238
240
242
242
242
239
234
233
233
233
148
146
149
154
151
149
148
151
141
138
133
128
128
129
123
107
101
97
95
91
67
50
53
71
84
90
114
142
158
178
204
221
227
220
219
226
230
231
230
230
235
236
236
237
236
237
240
242
241
240
238
235
234
233
231
139
140
145
153
152
152
149
143
138
135
128
126
123
128
122
100
97
95
98
87
45
41
43
53
80
95
108
131
155
200
222
223
216
216
217
223
227
232
236
235
238
238
238
239
238
238
239
240
239
240
237
235
234
234
233
129
134
144
153
152
151
146
139
132
129
125
123
120
122
117
100
95
92
100
80
39
39
42
54
78
108
125
128
141
195
215
215
218
219
218
225
228
232
236
236
238
236
236
238
238
239
240
240
239
239
236
235
235
235
236
103
124
144
148
149
143
139
133
127
129
132
129
127
122
120
107
97
92
102
85
45
33
34
43
54
77
114
134
145
199
207
216
227
224
216
219
227
231
234
237
239
236
235
238
236
236
236
238
236
236
235
234
235
236
237
92
120
134
144
147
139
137
133
133
138
136
132
131
129
132
117
100
95
109
107
49
32
35
40
48
48
73
123
180
226
210
212
220
224
220
215
224
230
239
243
241
238
239
241
239
235
234
238
236
235
234
233
233
233
235
82
81
107
147
143
142
138
139
140
139
136
133
136
129
126
125
108
110
108
112
65
36
39
38
70
129
134
182
233
216
196
201
219
228
221
184
217
239
244
235
231
232
233
236
236
235
233
233
234
234
233
233
233
233
234
65
63
94
152
142
145
144
143
138
139
136
136
136
131
128
129
120
122
105
102
96
58
37
47
53
69
119
226
228
199
198
204
217
231
183
168
217
236
242
232
230
230
231
232
233
233
233
233
233
233
233
233
233
234
234
61
52
93
157
144
147
148
145
141
141
140
143
140
140
137
133
127
119
108
103
103
89
64
59
70
92
166
226
201
187
205
216
223
183
149
210
230
233
236
233
231
232
231
233
234
233
234
234
234
234
234
234
234
235
235
64
59
119
158
152
152
151
153
151
148
153
153
153
147
148
147
141
140
121
100
106
100
90
102
138
151
156
170
185
194
196
204
191
185
204
229
231
235
235
236
233
232
235
232
232
234
235
235
235
237
236
235
235
235
235
86
122
152
157
154
157
158
159
159
158
164
162
161
159
157
153
159
155
148
131
124
111
95
106
127
141
151
163
173
194
190
198
209
216
214
227
231
232
233
235
234
231
235
236
235
236
237
238
238
238
238
237
237
236
236
136
160
163
158
159
164
166
164
168
169
171
169
166
164
162
163
167
165
158
160
145
150
139
134
124
129
144
153
168
196
215
224
228
223
223
227
228
226
229
230
234
233
233
237
237
236
238
238
238
238
238
237
237
237
236
173
162
164
165
171
177
175
179
185
184
183
182
180
183
180
180
177
166
161
166
169
174
178
183
188
193
207
220
224
235
232
230
234
232
232
234
232
228
225
226
232
233
233
236
236
235
236
237
238
238
238
237
237
237
237
170
161
168
175
179
181
184
194
199
201
205
206
208
203
192
189
174
167
167
174
183
178
185
193
203
217
223
232
232
238
235
231
234
232
231
236
234
231
226
227
229
230
232
235
234
234
236
237
238
239
239
238
238
237
238
167
173
180
192
196
198
211
216
217
221
219
221
228
217
208
205
202
196
195
196
200
201
210
212
215
225
230
234
236
238
236
234
231
234
233
231
232
232
227
228
228
229
229
235
235
234
236
237
237
238
238
238
238
238
238
180
179
193
208
210
214
219
220
224
225
225
226
227
218
211
213
212
202
205
207
206
219
223
218
221
230
232
230
238
237
236
235
234
236
234
230
231
231
230
230
229
228
229
231
234
234
235
236
236
237
237
237
237
237
238
183
195
203
207
209
217
220
219
223
224
225
226
226
215
211
212
208
208
209
210
215
222
222
227
223
230
232
229
236
235
236
235
234
235
234
230
230
229
230
230
229
229
229
231
235
234
235
236
236
237
237
237
237
237
236
192
200
208
204
213
218
219
222
221
221
224
226
223
209
210
212
215
217
216
222
224
225
224
226
225
232
231
230
237
237
233
233
232
233
233
233
232
229
227
228
229
230
231
232
234
235
236
236
236
236
236
236
236
236
236
193
198
201
203
216
217
219
222
220
221
223
223
217
214
215
214
219
217
220
228
224
224
226
223
229
235
231
230
238
237
232
232
232
232
233
234
232
230
227
227
229
230
231
232
234
234
236
236
236
236
236
236
235
235
234
191
196
190
207
217
216
219
221
218
219
221
221
218
216
215
216
215
217
225
228
221
222
225
226
231
235
229
230
238
236
232
231
231
231
232
232
232
231
230
227
229
231
232
232
233
234
236
236
236
236
236
235
235
234
234
